# xmcd CD database file generated by OrangeCD 6.1
#
# Track frame offsets:
#	150
#	14102
#	41487
#	56811
#	75716
#	92319
#	113496
#	131938
#	145993
#	166214
#	180393
#	204361
#	225096
#	246938
#	275263
#	294545
#	310782
#	334956
#	354244
#
# Disc length: 5060 seconds
#
# Revision: 0
# Processed by: cddbd v1.5.2PL0 Copyright (c) Steve Scherf et al.
# Submitted via: OrangeCD 6.1
#
DISCID=0613c213
DTITLE=Van MORRISON - b: 2002-07-12, Piazza Della Riforma, Lugano, SUI ("Estiva
DTITLE=l Jazz Lugano")
DYEAR=1900
DGENRE=
TTITLE0=Inarticulate Speech Of The Heart
TTITLE1=Did Ye Get Healed
TTITLE2=Goin' Home
TTITLE3=Talk Is Cheap
TTITLE4=Choppin' Wood
TTITLE5=Early In The Morning
TTITLE6=Moondance
TTITLE7=Days Like This
TTITLE8=Back On Top
TTITLE9=Precious Time
TTITLE10=Philosophers Stone
TTITLE11=All Work And No Play
TTITLE12=Muleskinner Blues
TTITLE13=Help Me
TTITLE14=Bright Side Of The Road
TTITLE15=Cleaning Windows
TTITLE16=Have I Told You Lately
TTITLE17=Stop Drinking
TTITLE18=Gloria
EXTD=
EXTT0=
EXTT1=
EXTT2=
EXTT3=
EXTT4=
EXTT5=
EXTT6=
EXTT7=
EXTT8=
EXTT9=
EXTT10=
EXTT11=
EXTT12=
EXTT13=
EXTT14=
EXTT15=
EXTT16=
EXTT17=
EXTT18=
PLAYORDER=
